<?xml version="1.0" encoding="UTF-8"?>
<svg xmlns="http://www.w3.org/2000/svg" xmlns:xlink="http://www.w3.org/1999/xlink" width="30px" height="30px" viewBox="0 0 30 21" version="1.1">
<defs>
<linearGradient id="linear0" gradientUnits="userSpaceOnUse" x1="1959.712" y1="737.107" x2="26066.213" y2="737.107" gradientTransform="matrix(0.000664762,0,0,-0.000643081,5.667483,4.958892)">
<stop offset="0" style="stop-color:rgb(97.254902%,96.470588%,93.72549%);stop-opacity:1;"/>
<stop offset="1" style="stop-color:rgb(90.588235%,89.411765%,83.921569%);stop-opacity:1;"/>
</linearGradient>
<linearGradient id="linear1" gradientUnits="userSpaceOnUse" x1="1959.712" y1="737.107" x2="26066.213" y2="737.107" gradientTransform="matrix(0.000664762,0,0,-0.000643081,5.667483,4.958892)">
<stop offset="0" style="stop-color:rgb(97.254902%,96.470588%,93.72549%);stop-opacity:1;"/>
<stop offset="1" style="stop-color:rgb(90.588235%,89.411765%,83.921569%);stop-opacity:1;"/>
</linearGradient>
<linearGradient id="linear2" gradientUnits="userSpaceOnUse" x1="1959.712" y1="737.107" x2="26066.213" y2="737.107" gradientTransform="matrix(0.000664762,0,0,-0.000643081,5.667483,4.958892)">
<stop offset="0" style="stop-color:rgb(97.254902%,96.470588%,93.72549%);stop-opacity:1;"/>
<stop offset="1" style="stop-color:rgb(90.588235%,89.411765%,83.921569%);stop-opacity:1;"/>
</linearGradient>
<linearGradient id="linear3" gradientUnits="userSpaceOnUse" x1="1959.712" y1="737.107" x2="26066.213" y2="737.107" gradientTransform="matrix(0.000664762,0,0,-0.000643081,5.667483,4.958892)">
<stop offset="0" style="stop-color:rgb(97.254902%,96.470588%,93.72549%);stop-opacity:1;"/>
<stop offset="1" style="stop-color:rgb(90.588235%,89.411765%,83.921569%);stop-opacity:1;"/>
</linearGradient>
<linearGradient id="linear4" gradientUnits="userSpaceOnUse" x1="1959.712" y1="737.107" x2="26066.213" y2="737.107" gradientTransform="matrix(0.000664762,0,0,-0.000643081,5.667483,4.958892)">
<stop offset="0" style="stop-color:rgb(97.254902%,96.470588%,93.72549%);stop-opacity:1;"/>
<stop offset="1" style="stop-color:rgb(90.588235%,89.411765%,83.921569%);stop-opacity:1;"/>
</linearGradient>
<linearGradient id="linear5" gradientUnits="userSpaceOnUse" x1="1959.712" y1="737.107" x2="26066.213" y2="737.107" gradientTransform="matrix(0.000664762,0,0,-0.000643081,5.667483,4.958892)">
<stop offset="0" style="stop-color:rgb(97.254902%,96.470588%,93.72549%);stop-opacity:1;"/>
<stop offset="1" style="stop-color:rgb(90.588235%,89.411765%,83.921569%);stop-opacity:1;"/>
</linearGradient>
<linearGradient id="linear6" gradientUnits="userSpaceOnUse" x1="1959.712" y1="737.107" x2="26066.213" y2="737.107" gradientTransform="matrix(0.000664762,0,0,-0.000643081,5.667483,4.958892)">
<stop offset="0" style="stop-color:rgb(97.254902%,96.470588%,93.72549%);stop-opacity:1;"/>
<stop offset="1" style="stop-color:rgb(90.588235%,89.411765%,83.921569%);stop-opacity:1;"/>
</linearGradient>
<linearGradient id="linear7" gradientUnits="userSpaceOnUse" x1="1959.712" y1="737.107" x2="26066.213" y2="737.107" gradientTransform="matrix(0.000664762,0,0,-0.000643081,5.667483,4.958892)">
<stop offset="0" style="stop-color:rgb(97.254902%,96.470588%,93.72549%);stop-opacity:1;"/>
<stop offset="1" style="stop-color:rgb(90.588235%,89.411765%,83.921569%);stop-opacity:1;"/>
</linearGradient>
</defs>
<g id="surface1">
<path style=" stroke:none;fill-rule:nonzero;fill:rgb(90.588235%,35.294118%,30.196078%);fill-opacity:1;" d="M 27.539062 0 C 28.890625 0 29.996094 1.070312 29.996094 2.378906 L 29.996094 3.066406 L 26.582031 5.429688 L 14.957031 13.175781 L 3.332031 5.347656 L 3.332031 21 L 2.457031 21 C 1.105469 21 0 19.929688 0 18.621094 L 0 2.378906 C 0 1.070312 1.105469 0.00390625 2.457031 0.00390625 L 14.957031 8.96875 L 27.539062 0.00390625 Z M 27.539062 0 "/>
<path style=" stroke:none;fill-rule:nonzero;fill:url(#linear0);" d="M 2.457031 0 L 14.957031 8.964844 L 27.539062 0 Z M 2.457031 0 "/>
<path style=" stroke:none;fill-rule:nonzero;fill:rgb(90.588235%,89.411765%,84.313725%);fill-opacity:1;" d="M 3.332031 5.347656 L 3.332031 21 L 26.582031 21 L 26.582031 5.429688 L 14.957031 13.175781 Z M 3.332031 5.347656 "/>
<path style=" stroke:none;fill-rule:nonzero;fill:rgb(72.156863%,71.764706%,68.235294%);fill-opacity:1;" d="M 3.332031 21 L 14.957031 13.175781 L 14.90625 13.136719 L 3.332031 20.828125 Z M 3.332031 21 "/>
<path style=" stroke:none;fill-rule:nonzero;fill:rgb(71.764706%,71.372549%,67.843137%);fill-opacity:1;" d="M 26.582031 5.429688 L 26.589844 21 L 14.957031 13.175781 Z M 26.582031 5.429688 "/>
<path style=" stroke:none;fill-rule:nonzero;fill:rgb(69.803922%,22.352941%,18.431373%);fill-opacity:1;" d="M 29.996094 3.066406 L 30 18.621094 C 29.941406 20.351562 29.167969 20.96875 26.589844 20.996094 L 26.582031 5.425781 Z M 29.996094 3.066406 "/>
<path style=" stroke:none;fill-rule:nonzero;fill:url(#linear1);" d="M 2.457031 0 L 14.957031 8.964844 L 27.539062 0 Z M 2.457031 0 "/>
<path style=" stroke:none;fill-rule:nonzero;fill:url(#linear2);" d="M 2.457031 0 L 14.957031 8.964844 L 27.539062 0 Z M 2.457031 0 "/>
<path style=" stroke:none;fill-rule:nonzero;fill:url(#linear3);" d="M 2.457031 0 L 14.957031 8.964844 L 27.539062 0 Z M 2.457031 0 "/>
<path style=" stroke:none;fill-rule:nonzero;fill:url(#linear4);" d="M 2.457031 0 L 14.957031 8.964844 L 27.539062 0 Z M 2.457031 0 "/>
<path style=" stroke:none;fill-rule:nonzero;fill:url(#linear5);" d="M 2.457031 0 L 14.957031 8.964844 L 27.539062 0 Z M 2.457031 0 "/>
<path style=" stroke:none;fill-rule:nonzero;fill:url(#linear6);" d="M 2.457031 0 L 14.957031 8.964844 L 27.539062 0 Z M 2.457031 0 "/>
<path style=" stroke:none;fill-rule:nonzero;fill:url(#linear7);" d="M 2.457031 0 L 14.957031 8.964844 L 27.539062 0 Z M 2.457031 0 "/>
<path style=" stroke:none;fill-rule:nonzero;fill:rgb(96.862745%,96.078431%,92.941176%);fill-opacity:1;" d="M 2.457031 0 L 14.957031 8.964844 L 27.539062 0 Z M 2.457031 0 "/>
</g>
</svg>
