<?xml version="1.0" encoding="UTF-8"?>
<svg xmlns="http://www.w3.org/2000/svg" xmlns:xlink="http://www.w3.org/1999/xlink" width="30px" height="30px" viewBox="0 0 30 30" version="1.1">
<g id="surface1">
<path style=" stroke:none;fill-rule:nonzero;fill:rgb(48.235294%,31.764706%,61.568627%);fill-opacity:1;" d="M 3.75 0 L 26.25 0 C 28.320312 0 30 1.679688 30 3.75 L 30 26.25 C 30 28.320312 28.320312 30 26.25 30 L 3.75 30 C 1.679688 30 0 28.320312 0 26.25 L 0 3.75 C 0 1.679688 1.679688 0 3.75 0 Z M 3.75 0 "/>
<path style=" stroke:none;fill-rule:evenodd;fill:rgb(100%,100%,100%);fill-opacity:1;" d="M 24.722656 20.242188 C 24.007812 19.667969 23.242188 19.148438 22.492188 18.621094 C 20.992188 17.570312 19.621094 17.488281 18.5 19.179688 C 17.875 20.132812 16.992188 20.175781 16.074219 19.757812 C 13.539062 18.609375 11.582031 16.835938 10.433594 14.257812 C 9.925781 13.117188 9.933594 12.097656 11.121094 11.289062 C 11.75 10.863281 12.382812 10.359375 12.332031 9.425781 C 12.265625 8.210938 9.316406 4.152344 8.148438 3.722656 C 7.667969 3.546875 7.1875 3.558594 6.699219 3.722656 C 3.964844 4.640625 2.835938 6.886719 3.917969 9.546875 C 7.152344 17.484375 12.839844 23.007812 20.671875 26.382812 C 21.117188 26.574219 21.613281 26.648438 21.863281 26.71875 C 23.648438 26.738281 25.734375 25.019531 26.339844 23.3125 C 26.917969 21.675781 25.691406 21.023438 24.722656 20.242188 Z M 15.941406 4.539062 C 21.667969 5.417969 24.304688 8.140625 25.035156 13.90625 C 25.101562 14.4375 24.90625 15.242188 25.664062 15.253906 C 26.457031 15.269531 26.265625 14.480469 26.273438 13.949219 C 26.339844 8.515625 21.605469 3.480469 16.105469 3.296875 C 15.691406 3.355469 14.832031 3.011719 14.78125 3.941406 C 14.742188 4.566406 15.464844 4.464844 15.941406 4.539062 Z M 15.941406 4.539062 "/>
<path style=" stroke:none;fill-rule:evenodd;fill:rgb(100%,100%,100%);fill-opacity:1;" d="M 17.0625 6.117188 C 16.511719 6.050781 15.785156 5.792969 15.65625 6.558594 C 15.519531 7.359375 16.332031 7.277344 16.851562 7.394531 C 20.386719 8.183594 21.617188 9.472656 22.199219 12.976562 C 22.285156 13.488281 22.117188 14.285156 22.984375 14.152344 C 23.628906 14.054688 23.398438 13.375 23.449219 12.976562 C 23.480469 9.609375 20.59375 6.542969 17.0625 6.117188 Z M 17.0625 6.117188 "/>
<path style=" stroke:none;fill-rule:evenodd;fill:rgb(100%,100%,100%);fill-opacity:1;" d="M 17.386719 8.871094 C 17.019531 8.882812 16.65625 8.921875 16.523438 9.3125 C 16.320312 9.902344 16.746094 10.039062 17.179688 10.109375 C 18.632812 10.34375 19.394531 11.199219 19.539062 12.644531 C 19.578125 13.039062 19.828125 13.355469 20.207031 13.3125 C 20.730469 13.25 20.78125 12.78125 20.765625 12.335938 C 20.789062 10.710938 18.953125 8.832031 17.386719 8.871094 Z M 17.386719 8.871094 "/>
</g>
</svg>
