<?xml version="1.0" encoding="UTF-8"?>
<svg xmlns="http://www.w3.org/2000/svg" xmlns:xlink="http://www.w3.org/1999/xlink" width="30px" height="30px" viewBox="0 0 30 30" version="1.1">
<defs>
<clipPath id="clip1">
  <path d="M 10.632812 0.742188 L 19.382812 0.742188 C 27.371094 0.742188 29.257812 2.644531 29.257812 10.632812 L 29.257812 19.382812 C 29.257812 27.371094 27.355469 29.257812 19.367188 29.257812 L 10.617188 29.257812 C 2.628906 29.257812 0.742188 27.355469 0.742188 19.367188 L 0.742188 10.617188 C 0.742188 2.644531 2.644531 0.742188 10.632812 0.742188 Z M 10.632812 0.742188 "/>
</clipPath>
</defs>
<g id="surface1">
<path style=" stroke:none;fill-rule:evenodd;fill:rgb(31.764706%,50.588235%,72.156863%);fill-opacity:1;" d="M 10.632812 0.742188 L 19.382812 0.742188 C 27.371094 0.742188 29.257812 2.644531 29.257812 10.632812 L 29.257812 19.382812 C 29.257812 27.371094 27.355469 29.257812 19.367188 29.257812 L 10.617188 29.257812 C 2.628906 29.257812 0.742188 27.355469 0.742188 19.367188 L 0.742188 10.617188 C 0.742188 2.644531 2.644531 0.742188 10.632812 0.742188 Z M 10.632812 0.742188 "/>
<g clip-path="url(#clip1)" clip-rule="nonzero">
<rect x="0" y="0" width="30" height="30" style="fill:rgb(31.764706%,50.588235%,72.156863%);fill-opacity:1;stroke:none;"/>
</g>
<path style=" stroke:none;fill-rule:evenodd;fill:rgb(100%,100%,100%);fill-opacity:1;" d="M 24.089844 10.558594 C 24.222656 10.113281 24.089844 9.800781 23.464844 9.800781 L 21.386719 9.800781 C 20.851562 9.800781 20.613281 10.085938 20.480469 10.394531 C 20.480469 10.394531 19.425781 12.980469 17.925781 14.644531 C 17.4375 15.132812 17.226562 15.28125 16.960938 15.28125 C 16.828125 15.28125 16.632812 15.132812 16.632812 14.6875 L 16.632812 10.558594 C 16.632812 10.023438 16.484375 9.800781 16.039062 9.800781 L 12.773438 9.800781 C 12.445312 9.800781 12.238281 10.054688 12.238281 10.277344 C 12.238281 10.78125 12.980469 10.902344 13.070312 12.296875 L 13.070312 15.355469 C 13.070312 16.023438 12.949219 16.144531 12.683594 16.144531 C 11.984375 16.144531 10.261719 13.558594 9.253906 10.589844 C 9.042969 10.039062 8.851562 9.800781 8.316406 9.800781 L 6.238281 9.800781 C 5.644531 9.800781 5.523438 10.085938 5.523438 10.394531 C 5.523438 10.945312 6.222656 13.679688 8.808594 17.289062 C 10.53125 19.753906 12.949219 21.089844 15.148438 21.089844 C 16.46875 21.089844 16.632812 20.792969 16.632812 20.289062 L 16.632812 18.414062 C 16.632812 17.820312 16.753906 17.703125 17.183594 17.703125 C 17.496094 17.703125 18.015625 17.851562 19.246094 19.039062 C 20.660156 20.449219 20.894531 21.089844 21.683594 21.089844 L 23.761719 21.089844 C 24.355469 21.089844 24.652344 20.792969 24.476562 20.210938 C 24.28125 19.632812 23.613281 18.789062 22.722656 17.777344 C 22.234375 17.199219 21.503906 16.589844 21.296875 16.277344 C 20.984375 15.875 21.074219 15.699219 21.296875 15.355469 C 21.296875 15.339844 23.835938 11.777344 24.089844 10.558594 Z M 24.089844 10.558594 "/>
</g>
</svg>
